<?xml version="1.0" encoding="UTF-8"?>
<svg width="100px" height="34px" viewBox="0 0 100 34" version="1.1" xmlns="http://www.w3.org/2000/svg" xmlns:xlink="http://www.w3.org/1999/xlink">
    <!-- Generator: Sketch 44.1 (41455) - http://www.bohemiancoding.com/sketch -->
    <title>Mask</title>
    <desc>Created with Sketch.</desc>
    <defs>
        <path d="M16.226817,21.4968795 L8.80126643,21.4968795 L6.72940521,25.9692751 L0,25.9692751 L12.3317179,2.1056169 L20.6688874,2.1056169 L22.7075989,25.9692751 L16.3925659,25.9692751 L16.226817,21.4968795 Z M11.1714757,16.4042247 L16.0279183,16.4042247 L15.7461452,9.48343735 L15.7129954,8.07969275 C15.7129954,7.26355809 15.7350951,6.55081118 15.779295,5.94143063 C15.5140954,6.87726504 15.177076,7.78044052 14.7682267,8.65098416 L11.1714757,16.4042247 Z M49.1869078,7.47575612 L48.5073373,10.8545367 L45.855355,11.7033125 C45.9658548,12.1385843 46.0211038,12.6500211 46.0211038,13.237638 C46.0211038,15.316061 45.3028658,16.9945527 43.8663682,18.2731637 C42.4298706,19.5517747 40.5569268,20.1910706 38.2474806,20.1910706 C37.407682,20.1910706 36.7225934,20.12034 36.1921943,19.9788766 C35.9711946,20.0985764 35.7833478,20.2182743 35.628648,20.3379741 C35.4739483,20.4576738 35.3965996,20.6208983 35.3965996,20.8276524 C35.3965996,21.2955696 36.0098643,21.6165778 37.2364123,21.7906865 L39.5071722,22.0844935 C41.429869,22.3565384 42.811096,22.8543731 43.6508946,23.5780125 C44.4906932,24.3016519 44.9105862,25.3326865 44.9105862,26.6711474 C44.9105862,29.0107334 43.9796392,30.8170844 42.1177173,32.0902544 C40.2557954,33.3634245 37.6121269,34 34.1866326,34 C31.8440365,34 29.97938,33.5892184 28.5926073,32.7676428 C27.2058346,31.9460673 26.5124587,30.8062163 26.5124587,29.3480557 C26.5124587,28.2816397 26.8881524,27.3621418 27.6395512,26.5895343 C28.3909499,25.8169268 29.5622304,25.1749105 31.1534278,24.6634662 C30.7445785,24.4131849 30.4103215,24.0867359 30.150647,23.6841095 C29.8909724,23.281483 29.7611371,22.8516586 29.7611371,22.3946231 C29.7611371,21.6220157 30.0429074,20.9364728 30.6064564,20.3379741 C31.1700055,19.7394753 32.0097915,19.1899529 33.1258397,18.6893903 C31.6782921,17.5685654 30.9545291,16.039696 30.9545291,14.1027364 C30.9545291,11.9699045 31.7059166,10.2778107 33.2087141,9.02640422 C34.7115116,7.77499774 36.7446778,7.14930389 39.3082735,7.14930389 C39.8718226,7.14930389 40.4657502,7.18194879 41.0900742,7.24723956 C41.7143981,7.31253033 42.2088774,7.38870176 42.5735268,7.47575612 L49.1869078,7.47575612 Z M31.9821723,28.450312 C31.9821723,29.3861465 32.9214066,29.8540566 34.7999035,29.8540566 C36.1811512,29.8540566 37.2336462,29.696273 37.95742,29.3807009 C38.6811938,29.0651288 39.0430753,28.6189819 39.0430753,28.0422468 C39.0430753,27.6505021 38.8607533,27.3539776 38.4961039,27.1526644 C38.1314545,26.9513512 37.4960901,26.8017288 36.5899916,26.7037926 L34.6838793,26.5079213 C33.8219807,26.627621 33.1562293,26.8534149 32.6866051,27.1853096 C32.2169809,27.5172044 31.9821723,27.9388677 31.9821723,28.450312 Z M37.0043639,14.6740278 C37.0043639,15.6969166 37.3745327,16.2083533 38.1148815,16.2083533 C38.6894805,16.2083533 39.1618601,15.8356574 39.5320345,15.0902544 C39.9022089,14.3448514 40.0872933,13.4824821 40.0872933,12.5031205 C40.0872933,11.4693499 39.750274,10.9524724 39.0762251,10.9524724 C38.6563258,10.9524724 38.2916818,11.1347397 37.9822823,11.4992799 C37.6728829,11.86382 37.4325494,12.3398914 37.2612746,12.9275084 C37.0899999,13.5151254 37.0043639,14.0972927 37.0043639,14.6740278 Z M58.2625825,25.9692751 L51.8481002,25.9692751 L55.8094988,7.47575612 L62.2571309,7.47575612 L58.2625825,25.9692751 Z M56.5885187,3.41142583 C56.5885187,2.29060089 56.9172507,1.44183358 57.5747246,0.865098416 C58.2321985,0.288363255 59.1520957,0 60.3344437,0 C61.3399921,0 62.1162416,0.198589789 62.6632157,0.595775324 C63.2101898,0.992960859 63.4836728,1.56152614 63.4836728,2.30148824 C63.4836728,3.38966779 63.1632281,4.23027388 62.5223292,4.82333173 C61.8814302,5.41638959 60.9587706,5.71291407 59.7543226,5.71291407 C57.6437761,5.71291407 56.5885187,4.94575899 56.5885187,3.41142583 Z M73.0731691,25.9692751 L66.6586868,25.9692751 L72.1118255,0.571291407 L78.5263078,0.571291407 L73.0731691,25.9692751 Z M89.9058922,26.2957273 C87.5632961,26.2957273 85.7400764,25.6509906 84.4361786,24.3614978 C83.1322807,23.0720051 82.4803416,21.2792562 82.4803416,18.9831973 C82.4803416,16.6871385 82.9416714,14.6169079 83.8643449,12.7724436 C84.7870184,10.9279793 86.0522223,9.52968951 87.6599946,8.57753241 C89.267767,7.6253753 91.1268985,7.14930389 93.237445,7.14930389 C95.3369415,7.14930389 96.988889,7.61721408 98.193337,8.55304849 C99.397785,9.4888829 100,10.7348298 100,12.2909265 C100,14.4781674 99.1353519,16.1566592 97.4060298,17.3264522 C95.6767076,18.4962452 93.1766868,19.081133 89.9058922,19.081133 L88.9279737,19.081133 L88.9279737,19.3422948 C88.9279737,20.9528005 89.8340586,21.7580413 91.6462556,21.7580413 C92.5192042,21.7580413 93.3755649,21.6301821 94.2153635,21.3744599 C95.0551621,21.1187377 96.0109712,20.7133969 97.0828194,20.1584253 L97.0828194,24.6308209 C95.8452215,25.2510833 94.6905157,25.6836282 93.6186675,25.9284686 C92.5468192,26.173309 91.3092399,26.2957273 89.9058922,26.2957273 Z M92.5247248,11.4258281 C91.8506759,11.4258281 91.2208364,11.8039649 90.6351873,12.5602496 C90.0495383,13.3165344 89.6959442,14.173463 89.5743944,15.131061 L90.0550662,15.131061 C91.2595142,15.131061 92.2042735,14.9052671 92.8893723,14.4536726 C93.5744712,14.0020781 93.9170155,13.4063087 93.9170155,12.6663466 C93.9170155,12.3181292 93.8065173,12.0243251 93.5855177,11.7849256 C93.3645181,11.5455261 93.0109239,11.4258281 92.5247248,11.4258281 Z" id="path-1"></path>
    </defs>
    <g id="Page-1" stroke="none" stroke-width="1" fill="none" fill-rule="evenodd">
        <g id="TWS_home" transform="translate(-671.000000, -1196.000000)">
            <g id="目标" transform="translate(0.000000, 770.000000)">
                <g id="Group-30" transform="translate(544.000000, 60.000000)">
                    <g id="Group-29" transform="translate(127.000000, 366.000000)">
                        <mask id="mask-2" fill="white">
                            <use xlink:href="#path-1"></use>
                        </mask>
                        <use id="Mask" fill="#174388" xlink:href="#path-1"></use>
                    </g>
                </g>
            </g>
        </g>
    </g>
</svg>