<?xml version="1.0" encoding="UTF-8"?>
<svg width="92px" height="74px" viewBox="0 0 92 74" version="1.1" xmlns="http://www.w3.org/2000/svg" xmlns:xlink="http://www.w3.org/1999/xlink">
    <!-- Generator: Sketch 44.1 (41455) - http://www.bohemiancoding.com/sketch -->
    <title>Group 23</title>
    <desc>Created with Sketch.</desc>
    <defs></defs>
    <g id="Page-1" stroke="none" stroke-width="1" fill="none" fill-rule="evenodd">
        <g id="TWS_home" transform="translate(-996.000000, -970.000000)">
            <g id="Group-10" transform="translate(0.000000, 770.000000)">
                <g id="Group-23" transform="translate(996.000000, 200.000000)">
                    <g>
                        <path d="M44,59 C65.5391052,59 83,38 83,38 C83,38 65.5391052,17 44,17 C22.4608948,17 5,38 5,38 C5,38 22.4608948,59 44,59 Z" id="Oval-4" fill="#215595"></path>
                        <circle id="Oval-5" stroke="#FFFFFF" stroke-width="4" fill="#FFFFFF" cx="44.5" cy="37.5" r="12.5"></circle>
                        <circle id="Oval-5-Copy" fill="#FFCC00" cx="44.5" cy="37.5" r="7.5"></circle>
                        <ellipse id="Oval-30-Copy" stroke="#FFCC00" stroke-width="3.2" cx="86.607438" cy="19.6" rx="3.60743802" ry="3.6"></ellipse>
                        <path d="M15.231405,1.6022081 C15.231405,0.717333001 15.943056,0 16.8347107,0 C17.7201921,0 18.4380165,0.714834118 18.4380165,1.6022081 L18.4380165,8.7977919 C18.4380165,9.682667 17.7263655,10.4 16.8347107,10.4 C15.9492294,10.4 15.231405,9.68516588 15.231405,8.7977919 L15.231405,1.6022081 Z M4.3471408,6.59801146 C3.72143961,5.97231027 3.71742186,4.96186597 4.34791698,4.33137085 C4.97404683,3.70524099 5.98708942,3.70312651 6.61455758,4.33059467 L11.7026037,9.41864077 C12.3283049,10.044342 12.3323226,11.0547863 11.7018275,11.6852814 C11.0756976,12.3114112 10.0626551,12.3135257 9.4351869,11.6860576 L4.3471408,6.59801146 Z M1.6129519,19.2033058 C0.728076803,19.2033058 0.0107438017,18.4916547 0.0107438017,17.6 C0.0107438017,16.7145187 0.72557792,15.9966942 1.6129519,15.9966942 L8.8085357,15.9966942 C9.6934108,15.9966942 10.4107438,16.7083453 10.4107438,17.6 C10.4107438,18.4854813 9.69590968,19.2033058 8.8085357,19.2033058 L1.6129519,19.2033058 Z" id="Combined-Shape-Copy-3" fill="#FFCC00"></path>
                        <path d="M23.8140496,66.5966942 L23.8140496,64.6022081 C23.8140496,63.7148341 23.0962251,63 22.2107438,63 C21.3190891,63 20.607438,63.717333 20.607438,64.6022081 L20.607438,66.5966942 L18.6129519,66.5966942 C17.7255779,66.5966942 17.0107438,67.3145187 17.0107438,68.2 C17.0107438,69.0916547 17.7280768,69.8033058 18.6129519,69.8033058 L20.607438,69.8033058 L20.607438,71.7977919 C20.607438,72.6851659 21.3252625,73.4 22.2107438,73.4 C23.1023985,73.4 23.8140496,72.682667 23.8140496,71.7977919 L23.8140496,69.8033058 L25.8085357,69.8033058 C26.6959097,69.8033058 27.4107438,69.0854813 27.4107438,68.2 C27.4107438,67.3083453 26.6934108,66.5966942 25.8085357,66.5966942 L23.8140496,66.5966942 Z" id="Combined-Shape-Copy-2" fill="#FFCC00"></path>
                    </g>
                </g>
            </g>
        </g>
    </g>
</svg>