<?xml version="1.0" encoding="UTF-8"?>
<svg width="78px" height="76px" viewBox="0 0 78 76" version="1.1" xmlns="http://www.w3.org/2000/svg" xmlns:xlink="http://www.w3.org/1999/xlink">
    <!-- Generator: Sketch 44.1 (41455) - http://www.bohemiancoding.com/sketch -->
    <title>Group 27</title>
    <desc>Created with Sketch.</desc>
    <defs>
        <path d="M4.01587302,1.94186047 C4.01587302,1.94186047 9.66711987,5.69133812 23.0679349,1.94186047 C36.46875,-1.80761719 45.6349206,1.94186047 45.6349206,1.94186047 C45.6349206,1.94186047 47.3251953,19.0628974 40.6432447,26.7094045 C33.961294,34.3559116 34.008355,47 34.008355,47 L14.5693049,47 L14.5693049,34.0739462 C14.5693049,34.0739462 9.13518415,34.9687727 6.28692336,32.72185 C3.43866257,30.4749273 4.78774492,19.1333008 4.78774492,19.1333008 C4.78774492,19.1333008 2.94915797,19.3042611 2.15696305,19.1333008 C1.36476813,18.9623405 0.310174851,18.1670149 0.310174851,18.1670149 L4.01587302,1.94186047 Z" id="path-1"></path>
    </defs>
    <g id="Page-1" stroke="none" stroke-width="1" fill="none" fill-rule="evenodd">
        <g id="TWS_home" transform="translate(-363.000000, -969.000000)">
            <g id="Group-10" transform="translate(0.000000, 770.000000)">
                <g id="Group-27" transform="translate(365.000000, 199.000000)">
                    <g id="Group-22">
                        <g>
                            <path d="M31.7064529,33.9393051 C30.6316049,34.6114878 29.3611734,35 28,35 C24.1340068,35 21,31.8659932 21,28 C21,25.1536005 22.6989064,22.7040018 25.1380232,21.6099001 C25.7827707,18.4098325 28.6099621,16 32,16 C33.8097258,16 35.4590508,16.6867573 36.7015801,17.813877 C37.7914789,16.6949253 39.3145852,16 41,16 C42.4747557,16 43.8252409,16.532065 44.869968,17.4147073 C45.6981234,17.1455045 46.5820695,17 47.5,17 C52.1944204,17 56,20.8055796 56,25.5 C56,27.37242 55.3945707,29.1034344 54.3687931,30.5079624 C55.3870026,31.7236116 56,33.2902192 56,35 C56,38.8659932 52.8659932,42 49,42 C45.4377565,42 42.4969944,39.3391221 42.0568754,35.8965283 C40.86742,36.5977349 39.480687,37 38,37 C35.4457785,37 33.1711369,35.8029758 31.7064529,33.9393051 Z" id="Combined-Shape" fill="#FFCC00"></path>
                            <ellipse id="Oval-30" stroke="#FFCC00" stroke-width="3.2" cx="3.60743802" cy="70.6" rx="3.60743802" ry="3.6"></ellipse>
                            <path d="M22.231405,1.6022081 C22.231405,0.717333001 22.943056,0 23.8347107,0 C24.7201921,0 25.4380165,0.714834118 25.4380165,1.6022081 L25.4380165,8.7977919 C25.4380165,9.682667 24.7263655,10.4 23.8347107,10.4 C22.9492294,10.4 22.231405,9.68516588 22.231405,8.7977919 L22.231405,1.6022081 Z M11.3471408,6.59801146 C10.7214396,5.97231027 10.7174219,4.96186597 11.347917,4.33137085 C11.9740468,3.70524099 12.9870894,3.70312651 13.6145576,4.33059467 L18.7026037,9.41864077 C19.3283049,10.044342 19.3323226,11.0547863 18.7018275,11.6852814 C18.0756976,12.3114112 17.0626551,12.3135257 16.4351869,11.6860576 L11.3471408,6.59801146 Z M8.6129519,19.2033058 C7.7280768,19.2033058 7.0107438,18.4916547 7.0107438,17.6 C7.0107438,16.7145187 7.72557792,15.9966942 8.6129519,15.9966942 L15.8085357,15.9966942 C16.6934108,15.9966942 17.4107438,16.7083453 17.4107438,17.6 C17.4107438,18.4854813 16.6959097,19.2033058 15.8085357,19.2033058 L8.6129519,19.2033058 Z" id="Combined-Shape" fill="#FFCC00"></path>
                            <path d="M71.8140496,56.5966942 L71.8140496,54.6022081 C71.8140496,53.7148341 71.0962251,53 70.2107438,53 C69.3190891,53 68.607438,53.717333 68.607438,54.6022081 L68.607438,56.5966942 L66.6129519,56.5966942 C65.7255779,56.5966942 65.0107438,57.3145187 65.0107438,58.2 C65.0107438,59.0916547 65.7280768,59.8033058 66.6129519,59.8033058 L68.607438,59.8033058 L68.607438,61.7977919 C68.607438,62.6851659 69.3252625,63.4 70.2107438,63.4 C71.1023985,63.4 71.8140496,62.682667 71.8140496,61.7977919 L71.8140496,59.8033058 L73.8085357,59.8033058 C74.6959097,59.8033058 75.4107438,59.0854813 75.4107438,58.2 C75.4107438,57.3083453 74.6934108,56.5966942 73.8085357,56.5966942 L71.8140496,56.5966942 Z" id="Combined-Shape" fill="#FFCC00"></path>
                            <g id="Combined-Shape-Copy" transform="translate(13.000000, 29.000000)">
                                <mask id="mask-2" fill="white">
                                    <use xlink:href="#path-1"></use>
                                </mask>
                                <use id="Mask" fill="#215595" xlink:href="#path-1"></use>
                                <path d="M18.7064529,4.93930505 C17.6316049,5.61148781 16.3611734,6 15,6 C11.1340068,6 8,2.86599325 8,-1 C8,-3.84639953 9.69890645,-6.29599821 12.1380232,-7.3900999 C12.7827707,-10.5901675 15.6099621,-13 19,-13 C20.8097258,-13 22.4590508,-12.3132427 23.7015801,-11.186123 C24.7914789,-12.3050747 26.3145852,-13 28,-13 C29.4747557,-13 30.8252409,-12.467935 31.869968,-11.5852927 C32.6981234,-11.8544955 33.5820695,-12 34.5,-12 C39.1944204,-12 43,-8.19442037 43,-3.5 C43,-1.62758 42.3945707,0.103434414 41.3687931,1.50796243 C42.3870026,2.72361157 43,4.29021918 43,6 C43,9.86599325 39.8659932,13 36,13 C32.4377565,13 29.4969944,10.3391221 29.0568754,6.89652826 C27.86742,7.5977349 26.480687,8 25,8 C22.4457785,8 20.1711369,6.80297581 18.7064529,4.93930505 Z" fill="#E2C122" opacity="0.600000024" mask="url(#mask-2)"></path>
                            </g>
                        </g>
                    </g>
                </g>
            </g>
        </g>
    </g>
</svg>