<?xml version="1.0" encoding="UTF-8"?>
<svg width="93px" height="73px" viewBox="0 0 93 73" version="1.1" xmlns="http://www.w3.org/2000/svg" xmlns:xlink="http://www.w3.org/1999/xlink">
    <!-- Generator: Sketch 44.1 (41455) - http://www.bohemiancoding.com/sketch -->
    <title>Group 28</title>
    <desc>Created with Sketch.</desc>
    <defs>
        <rect id="path-1" x="-1.13686838e-13" y="0" width="66" height="21" rx="2"></rect>
        <rect id="path-3" x="0" y="0" width="17.173913" height="21" rx="8"></rect>
        <path d="M0,1.99456145 C0,0.892995579 0.891944102,0 2.00535677,0 L44.6521739,0 L44.6521739,21 L2.00535677,21 C0.897828809,21 0,20.0976562 0,19.0054385 L0,1.99456145 Z" id="path-4"></path>
        <rect id="path-6" x="-4.29347826" y="0" width="13.7391304" height="21"></rect>
        <polygon id="path-8" points="79 10.5 56.673913 21 56.673913 0"></polygon>
    </defs>
    <g id="Page-1" stroke="none" stroke-width="1" fill="none" fill-rule="evenodd">
        <g id="TWS_home" transform="translate(-675.000000, -967.000000)">
            <g id="Group-10" transform="translate(0.000000, 770.000000)">
                <g id="Group-28" transform="translate(675.000000, 197.000000)">
                    <g>
                        <g id="Rectangle-15-+-Oval-7-Mask" transform="translate(42.000000, 41.500000) rotate(-315.000000) translate(-42.000000, -41.500000) translate(9.000000, 31.000000)">
                            <mask id="mask-2" fill="white">
                                <use xlink:href="#path-1"></use>
                            </mask>
                            <use id="Mask" fill="#215595" xlink:href="#path-1"></use>
                            <ellipse id="Oval-7" fill="#FFFFFF" mask="url(#mask-2)" cx="10.7142857" cy="10.5" rx="3" ry="2.94"></ellipse>
                        </g>
                        <g id="Group-25" transform="translate(37.500000, 44.500000) rotate(-225.000000) translate(-37.500000, -44.500000) translate(-2.000000, 34.000000)">
                            <g id="Rectangle-13">
                                <use fill="#FFFFFF" fill-rule="evenodd" xlink:href="#path-3"></use>
                                <rect stroke="#FFCC00" stroke-width="3" x="1.5" y="1.5" width="14.173913" height="18" rx="7.08695652"></rect>
                            </g>
                            <g id="Rectangle-15-+-Oval-7-Mask-Copy" transform="translate(12.021739, 0.000000)">
                                <mask id="mask-5" fill="white">
                                    <use xlink:href="#path-4"></use>
                                </mask>
                                <use id="Mask" fill="#FFCC00" xlink:href="#path-4"></use>
                                <mask id="mask-7" fill="white">
                                    <use xlink:href="#path-6"></use>
                                </mask>
                                <use id="Mask-Copy" fill="#FFCC00" xlink:href="#path-6"></use>
                            </g>
                            <g id="Triangle-2">
                                <use fill="#FFFFFF" fill-rule="evenodd" xlink:href="#path-8"></use>
                                <path stroke="#FFCC00" stroke-width="3" d="M75.4754385,10.5 L58.173913,2.36306057 L58.173913,18.6369394 L75.4754385,10.5 Z"></path>
                            </g>
                            <polygon id="Triangle-2-Copy" fill="#FFCC00" points="77.2826087 10.92 69.5543478 14.28 69.5543478 7.56"></polygon>
                        </g>
                        <ellipse id="Oval-30-Copy-2" stroke="#FFCC00" stroke-width="3.2" cx="78.607438" cy="7.6" rx="3.60743802" ry="3.6"></ellipse>
                        <path d="M15.231405,1.6022081 C15.231405,0.717333001 15.943056,0 16.8347107,0 C17.7201921,0 18.4380165,0.714834118 18.4380165,1.6022081 L18.4380165,8.7977919 C18.4380165,9.682667 17.7263655,10.4 16.8347107,10.4 C15.9492294,10.4 15.231405,9.68516588 15.231405,8.7977919 L15.231405,1.6022081 Z M4.3471408,6.59801146 C3.72143961,5.97231027 3.71742186,4.96186597 4.34791698,4.33137085 C4.97404683,3.70524099 5.98708942,3.70312651 6.61455758,4.33059467 L11.7026037,9.41864077 C12.3283049,10.044342 12.3323226,11.0547863 11.7018275,11.6852814 C11.0756976,12.3114112 10.0626551,12.3135257 9.4351869,11.6860576 L4.3471408,6.59801146 Z M1.6129519,19.2033058 C0.728076803,19.2033058 0.0107438017,18.4916547 0.0107438017,17.6 C0.0107438017,16.7145187 0.72557792,15.9966942 1.6129519,15.9966942 L8.8085357,15.9966942 C9.6934108,15.9966942 10.4107438,16.7083453 10.4107438,17.6 C10.4107438,18.4854813 9.69590968,19.2033058 8.8085357,19.2033058 L1.6129519,19.2033058 Z" id="Combined-Shape-Copy-7" fill="#FFCC00"></path>
                        <path d="M88.8033058,65.5966942 L88.8033058,63.6022081 C88.8033058,62.7148341 88.0854813,62 87.2,62 C86.3083453,62 85.5966942,62.717333 85.5966942,63.6022081 L85.5966942,65.5966942 L83.6022081,65.5966942 C82.7148341,65.5966942 82,66.3145187 82,67.2 C82,68.0916547 82.717333,68.8033058 83.6022081,68.8033058 L85.5966942,68.8033058 L85.5966942,70.7977919 C85.5966942,71.6851659 86.3145187,72.4 87.2,72.4 C88.0916547,72.4 88.8033058,71.682667 88.8033058,70.7977919 L88.8033058,68.8033058 L90.7977919,68.8033058 C91.6851659,68.8033058 92.4,68.0854813 92.4,67.2 C92.4,66.3083453 91.682667,65.5966942 90.7977919,65.5966942 L88.8033058,65.5966942 Z" id="Combined-Shape-Copy-6" fill="#FFCC00"></path>
                    </g>
                </g>
            </g>
        </g>
    </g>
</svg>